<svg version="1" xmlns="http://www.w3.org/2000/svg" width="574.667" height="574.667" viewBox="0 0 431.000000 431.000000"><path d="M50.2 15L45 20v159.9c0 151.5.1 160 1.7 160.5 1 .3 14.4 3.9 29.8 8l28 7.5 5.2-5.1 5.3-5.2v-73.3c0-40.3.3-73.3.6-73.3s2.5.5 5 1.1l4.4 1.1v40.3l9.8 2.5 9.7 2.6.3 10.1.3 10.1 5.7 1.5c3.1.9 7.6 2.1 9.9 2.7l4.2 1.1.3 10.1.3 10.2 9.8 2.5 9.7 2.5v20.2l19.9 5.3 19.9 5.3 5.1-5.4c4-4.2 5.1-6 5.1-8.6 0-3 .2-3.2 2.8-2.6 1.5.4 3.7 1 4.8 1.5 1.8.6 3.1-.2 7.3-4.6 4.2-4.4 5.1-6 5.1-8.9v-3.5l4.7 1.4 4.8 1.5 5.2-5.2c4.3-4.2 5.3-5.9 5.3-8.5 0-3.8-.3-3.7 5.4-2.2l4.4 1.1 5.1-5.3 5.1-5.2v-13.4c0-7.3.1-13.3.3-13.3.1 0 2.2.6 4.7 1.4l4.5 1.3.3 80 .2 80 4.3 1.2c2.3.6 15.7 4.2 29.7 8l25.5 6.8 5.3-5 5.2-5.1V95.4l-10.2-2.7c-5.7-1.5-16.1-4.3-23.3-6.2-7.1-1.9-16.1-4.3-19.8-5.2l-6.8-1.7-4.9 4.9-4.9 5-.1 13.7v13.6l-4.7-1.4-4.7-1.4-5.3 5.2-5.3 5.2v13.3c0 7.3-.3 13.3-.6 13.3s-2.5-.5-4.8-1.1l-4.3-1.1-5.2 5.2c-4.2 4.2-5.1 5.7-5.1 8.6 0 3.2-.2 3.4-2.7 2.8-1.6-.4-3.7-1-4.9-1.5-1.7-.6-3.1.2-7.3 4.5l-5.1 5.2v27.2l-4.7-1.4-4.7-1.4-5.3 5.2-5.3 5.2v13.3c0 7.3-.3 13.3-.6 13.3-.7 0-21.1-5.4-26.4-6.9l-2.5-.8-.3-20-.2-20-5.8-1.6c-3.1-.8-7.6-2-9.9-2.6l-4.3-1.2-.2-20.1-.3-20.2-9.7-2.5-9.8-2.5v-20.2l-9.7-2.5-9.8-2.5-.3-20.2-.2-20.1-4.3-1.1c-2.3-.6-6.8-1.8-9.9-2.7l-5.8-1.6-.2-20-.3-20.1-29-7.8C69.6 13.6 56.3 10 56 10c-.3 0-2.9 2.2-5.8 5z"/></svg>